<?xml version="1.0" encoding="UTF-8"?> <svg xmlns="http://www.w3.org/2000/svg" version="1.2" viewBox="0 0 1467 194" width="1467" height="194"><title>PremierParksLogo2CHorizontal-pdf</title><defs><clipPath id="cp1"><path d="m-490-695h2448v1584h-2448z"></path></clipPath></defs><style> .s0 { fill: #155cb1 } .s1 { fill: #4fd1f3 } </style><g id="Page 1" clip-path="url(#cp1)"><path id="Path 1" fill-rule="evenodd" class="s0" d="m384.3 157.1c-24.6 18.5-67.3 26.2-107 19.8-47.2-7.5-59-27.5-107.6 1 58.5-18 66.9 6.2 96 2.1-20.3 9.2-37.7 1-70.4 7.2-29.9 5.6-54.8 5.1-100.4-10 69.7 12.1 48-27.6 148.7-21.1-73.3-28.3-63.5 4.6-165.4 18.9-34.4 4.8-52.8-0.8-76.5-5 41.7-1.3 68.9-6.3 89.3-12.4q-2.3-6.6-3.7-13.5-1.8 0-3.6-0.1-2.4-0.2-4.9-0.5-0.4-1.3-0.8-2.5-0.3-0.8-0.5-1.6-1.7-0.2-3.4-0.4-0.4-1.4-0.7-2.7-0.3-1.4-0.6-2.7-0.3-1.3-0.7-2.5-0.3-1.3-0.6-2.6c2.8 0 10.8 0 13.7 0q-0.3-3.3-0.3-6.7 0-3.2 0.2-6.3c-2.8 0-10.8 0-13.6 0q0.3-0.5 0.6-1.1 0.4-0.6 0.7-1.1 0.3-0.6 0.6-1.2 0.3-0.6 0.7-1.3 1.7-0.1 3.4-0.3 0.2-0.3 0.5-0.7 0.4-0.6 0.8-1.2 2.5-0.2 4.9-0.3 1 0 2.1 0c0.9-7.1 2.4-13.9 4.6-20.5q-1.3-0.2-2.6-0.4-0.3-1.3-0.7-2.7-0.3-1.3-0.6-2.6-0.3-1.3-0.6-2.6-0.3-1.3-0.6-2.5c2.8 0 6.5 0 9.4 0q2.6-5.8 5.9-11.2v-1.8c-2.9 0-12.5 0-15.3 0q0.3-0.6 0.6-1.1 0.3-0.6 0.6-1.2 0.3-0.6 0.6-1.2 0.4-0.6 0.7-1.2 1.7-0.2 3.4-0.3 0.3-0.4 0.5-0.7 0.4-0.6 0.9-1.2 2.4-0.2 4.8-0.3 2.4-0.1 4.8-0.1 2.3 0 4.5 0.1c5.2-7 11.3-13.3 18-18.8l-0.1-0.5h0.8q6.8-5.5 14.5-9.9v-3.1c-2.8 0-12.5 0-15.3 0q0.3-0.5 0.6-1.1 0.4-0.6 0.7-1.2 0.3-0.6 0.6-1.2 0.3-0.6 0.6-1.2 1.8-0.2 3.5-0.3 0.2-0.3 0.5-0.7 0.4-0.6 0.8-1.2 2.4-0.2 4.9-0.3 2.4-0.1 4.8-0.1 2.4 0 4.8 0.1 2.5 0.1 4.9 0.3 0.4 0.6 0.8 1.2 0.3 0.4 0.6 0.7 1.7 0.1 3.4 0.3l0.1 0.3c11-3.9 22.8-6.2 35.2-6.4v-2.9c-2.9 0-12.5 0-15.4 0q0.3-0.6 0.7-1.1 0.3-0.6 0.6-1.2 0.3-0.6 0.6-1.2 0.3-0.6 0.7-1.2 1.7-0.2 3.4-0.3 0.2-0.4 0.5-0.7 0.4-0.6 0.8-1.2 2.5-0.2 4.9-0.3 2.4-0.1 4.8-0.1 2.4 0 4.9 0.1 2.4 0.1 4.8 0.3 0.4 0.6 0.9 1.2 0.2 0.3 0.5 0.7 1.7 0.1 3.4 0.3 0.3 0.6 0.6 1.2 0.3 0.6 0.7 1.2 0.3 0.6 0.6 1.2 0.3 0.5 0.6 1.1c-2.8 0-12.5 0-15.3 0v2.9c12.3 0.2 24.1 2.5 35.1 6.4l0.2-0.3q1.7-0.2 3.4-0.3 0.3-0.3 0.5-0.7 0.4-0.6 0.9-1.2 2.4-0.2 4.8-0.3 2.4-0.1 4.8-0.1 2.5 0 4.9 0.1 2.4 0.1 4.8 0.3 0.4 0.6 0.9 1.2 0.2 0.4 0.5 0.7 1.7 0.1 3.4 0.3 0.3 0.6 0.6 1.2 0.4 0.6 0.7 1.2 0.3 0.6 0.6 1.2 0.3 0.6 0.7 1.1c-2.9 0-12.5 0-15.4 0v3.1q7.7 4.4 14.6 9.9h0.8l-0.2 0.5c6.8 5.5 12.8 11.8 18.1 18.8q2-0.1 4.1-0.1 2.4 0 4.8 0.1 2.4 0.1 4.8 0.3 0.5 0.6 0.9 1.2 0.3 0.3 0.5 0.7 1.7 0.1 3.4 0.3 0.3 0.6 0.7 1.2 0.3 0.6 0.6 1.2 0.3 0.6 0.6 1.2 0.3 0.5 0.7 1.1c-2.9 0-12.5 0-15.3 0v1.2q3.4 5.7 6.2 11.8c2.8 0 6.2 0 9.1 0q-0.4 1.2-0.7 2.5-0.3 1.3-0.6 2.6-0.3 1.3-0.6 2.6-0.4 1.4-0.7 2.7-1.1 0.2-2.3 0.4c2.2 6.5 3.8 13.4 4.7 20.5q1 0 2.1 0 2.4 0.1 4.8 0.3 0.4 0.6 0.9 1.2 0.2 0.4 0.5 0.7 1.7 0.2 3.4 0.3 0.3 0.7 0.6 1.3 0.3 0.6 0.7 1.2 0.3 0.5 0.6 1.1 0.3 0.6 0.6 1.1c-2.8 0-10.7 0-13.6 0q0.2 3.1 0.2 6.3 0 3.4-0.2 6.7c2.8 0 10.8 0 13.6 0q-0.3 1.3-0.6 2.6-0.3 1.2-0.6 2.5-0.4 1.4-0.7 2.7-0.3 1.3-0.6 2.7-1.7 0.2-3.4 0.4-0.3 0.8-0.5 1.6-0.5 1.2-0.9 2.5-2.4 0.3-4.8 0.5-1.8 0.1-3.6 0.1-1.3 6.1-3.2 11.9c30.6 10.2 51.5 6.1 88.7 1.1zm-246-18c-1.5-4.8-2.4-9.8-2.6-15h-43.7q0 2.2 0.2 4.4c2.8 0 10.5 0 13.3 0q-0.3 1.3-0.6 2.6-0.3 1.2-0.7 2.5-0.3 1.4-0.6 2.7-0.3 1.3-0.6 2.7-1.7 0.2-3.4 0.4-0.3 0.8-0.6 1.6-0.4 1.2-0.8 2.5-1.9 0.3-3.8 0.4 1.3 5.9 3.3 11.6c16.1-5.4 28.1-11.4 40.6-16.4zm37.5-10l3.2-1.9-0.4-1.5-0.4-1.6h-38.8c0.2 4.7 1 9.3 2.4 13.6 9.9-3.8 20.5-6.9 34-8.6zm69 6.9c1.1-3.8 1.7-7.8 1.9-11.9h-38.8l-0.4 1.6-0.5 1.5 1.9 1.1c12.8 1.1 24.6 4 35.9 7.7zm39.5 15.7q2.4 1 4.7 1.9 1.6-4.8 2.7-9.7-1.9-0.1-3.8-0.4-0.5-1.3-0.9-2.5-0.3-0.8-0.5-1.6-1.7-0.2-3.4-0.4-0.3-1.4-0.7-2.7-0.3-1.4-0.6-2.7-0.3-1.3-0.6-2.5-0.3-1.3-0.7-2.6c2.9 0 10.6 0 13.4 0q0.1-2.2 0.2-4.4h-43.7c-0.2 4.5-0.9 8.9-2.1 13.1 12.3 4.3 24.1 9.5 36 14.5zm-91.3-39.3l-4.7 1.2-3.4 3.5-1.2 4.7 1.2 4.6 3.4 3.5 4.1 1 2.3-0.2 3-0.8 3.4-3.5 1.3-4.6-1.3-4.7-3.4-3.5zm101.1 7.2q-0.1-2-0.2-4c-2.8 0-10.5 0-13.4 0q0.3-0.6 0.7-1.1 0.3-0.6 0.6-1.2 0.3-0.6 0.6-1.2 0.3-0.6 0.7-1.2 1.7-0.2 3.4-0.3 0.2-0.4 0.5-0.7 0.4-0.6 0.8-1.2 2.5-0.2 4.9-0.3h0.5q-1.1-8.3-3.5-16-0.7 0-1.4 0.1-2.4 0.1-4.9 0.1-2.4 0-4.8-0.1-2.4-0.2-4.8-0.5-0.5-1.3-0.9-2.5-0.2-0.8-0.5-1.5-1.7-0.3-3.4-0.5-0.3-1.4-0.6-2.7-0.4-1.3-0.7-2.7l-0.2-0.7-23.7 13.7c3.9 7.4 6.2 15.7 6.6 24.5zm-14.7-50.3q-1.7-2.7-3.5-5.2c-2.8 0-6.6 0-9.4 0q0.3-0.6 0.6-1.2 0.3-0.5 0.6-1.1 0.3-0.6 0.7-1.2 0.3-0.6 0.6-1.3 1.6-0.1 3.2-0.2c-3.8-4.9-8.1-9.4-12.8-13.4l-0.5 2.3q-1.7 0.3-3.4 0.5-0.3 0.7-0.5 1.5-0.5 1.3-0.9 2.5-2.4 0.3-4.8 0.5-2.5 0.1-4.9 0.1-2.4 0-4.8-0.1-2-0.1-4-0.4l-11.9 20.7c7.2 4.6 13.3 10.7 17.9 17.9zm-46.6-21q-1.5-0.1-2.9-0.4-0.3-1.3-0.6-2.7-0.3-1.3-0.6-2.6-0.4-1.3-0.7-2.6-0.3-1.3-0.6-2.5c2.8 0 8.8 0 11.6 0l2.5-4.4c-13.8-7.5-29.5-12-46.3-12.4v3.1c2.9 0 11.9 0 14.8 0q-0.4 1.2-0.7 2.5-0.3 1.3-0.6 2.6-0.3 1.3-0.6 2.6-0.4 1.4-0.7 2.7-1.7 0.3-3.4 0.5-0.2 0.8-0.5 1.5-0.4 1.3-0.8 2.6-2.5 0.3-4.9 0.4-1.3 0.1-2.6 0.1v25.1c8.8 0.4 17.1 2.7 24.5 6.6zm-42.1-9q-1.3-0.1-2.5-0.1-2.5-0.2-4.9-0.5-0.4-1.3-0.8-2.5-0.3-0.8-0.5-1.6-1.8-0.2-3.5-0.4-0.3-1.4-0.6-2.7-0.3-1.4-0.6-2.7-0.3-1.3-0.7-2.6-0.3-1.2-0.6-2.5c2.8 0 11.9 0 14.7 0v-3c-16.7 0.3-32.5 4.8-46.3 12.4l2.6 4.3c2.8 0 8.8 0 11.6 0q-0.3 1.3-0.7 2.6-0.3 1.2-0.6 2.5-0.3 1.4-0.6 2.7-0.3 1.3-0.7 2.7-1.4 0.2-2.8 0.4l13.1 22.6c7.3-3.9 15.6-6.2 24.4-6.5zm-40.3 13.2q-2 0.3-4 0.4-2.4 0.1-4.8 0.1-2.4 0-4.9-0.1-2.4-0.2-4.8-0.5-0.4-1.3-0.8-2.5-0.3-0.8-0.6-1.5-1.7-0.3-3.4-0.5-0.3-1.2-0.5-2.3c-4.7 4-9 8.5-12.8 13.4q1.4 0.1 2.9 0.2 0.3 0.6 0.6 1.3 0.3 0.6 0.6 1.1 0.4 0.6 0.7 1.2 0.3 0.6 0.6 1.1c-2.8 0-6.3 0-9.1 0q-1.8 2.6-3.5 5.3l37.9 21.9c4.5-7.2 10.7-13.3 17.9-17.9zm-32.3 28.6l-0.2 0.9q-0.3 1.3-0.7 2.6-0.3 1.4-0.6 2.7-1.7 0.3-3.4 0.5-0.3 0.8-0.5 1.5-0.4 1.3-0.9 2.6-2.4 0.3-4.8 0.4-2.4 0.2-4.8 0.2-2.5 0-4.9-0.2-0.5 0-1.1 0-2.3 7.7-3.4 15.9l0.5 0.1q2.4 0.1 4.8 0.2 0.4 0.6 0.8 1.2 0.3 0.4 0.6 0.7 1.7 0.2 3.4 0.3 0.3 0.7 0.6 1.3 0.3 0.6 0.6 1.2 0.4 0.6 0.7 1.1 0.3 0.6 0.6 1.2c-2.8 0-10.5 0-13.3 0q-0.2 1.9-0.2 3.9h43.7c0.3-8.8 2.7-17.1 6.5-24.4zm60 38.3l0.4-1.6 0.5-1.6-33.6-19.4c-3.6 6.8-5.7 14.5-6.1 22.6zm3.2-7.1l1.1-1.2 1.2-1.2-19.4-33.5c-6.6 4.2-12.3 9.8-16.5 16.5zm6.2-4.6l1.6-0.5 1.6-0.4v-38.8c-8.1 0.4-15.7 2.5-22.5 6.1zm7.7-0.9l1.6 0.5 1.6 0.4 19.4-33.6c-6.8-3.6-14.5-5.7-22.6-6zm7.1 3.1l1.2 1.1 1.1 1.2 33.6-19.4c-4.2-6.6-9.9-12.3-16.5-16.5zm4.6 6.3l0.4 1.6 0.5 1.6h38.7c-0.3-8.2-2.5-15.8-6-22.6zm-102.7-43.1q-0.2 0.4-0.4 0.8v2.9h6.9zm170.8 3.8h6.6v-3.6l-0.1-0.2zm-32.4-52.4h-2.6q1.3 0.6 2.6 1.3zm3.4 12.9h2.6q-1.3-0.8-2.6-1.7zm-102.9-13v1.3q1.3-0.6 2.6-1.3zm-3.3 13v-1.7q-1.4 0.8-2.7 1.7z"></path><path id="Path 2" class="s1" d="m137.5 164.5c6.5-2.1 13-4.4 19.4-6.8 5.1-1.9 10.3-3.9 15.5-5.7 9.7-3.2 18.3-5 28.6-4.3 8.4 0.5 17.1 2.5 25.5 5.1-13.2-0.2-26.6 0.5-39.3 3-5.9 1.2-11.7 2.8-17.4 4.9-4.5 1.7-8.9 3.6-13.3 5.7-7.9 3.8-14.9 7.4-23.6 9.2-12 2.4-25 1.2-37-0.8 14.1-2.6 27.9-5.9 41.6-10.3zm54.3 5.4c4.4-0.7 8.9-1.1 13.4-1.3 8.3-0.3 16.1 0.6 24.1 2.6 12.9 3.3 22.2 8.2 36 6.2h0.5c-31.5-6.9-45.8-17.9-74-7.5zm5.9-56.3l3.4 3.5 1.3 4.7-1.3 4.6-3.4 3.5-3 0.8-2.3 0.2-4.1-1-3.4-3.5-1.2-4.6 1.2-4.7 3.4-3.5 4.7-1.2z"></path><path id="Path 3" fill-rule="evenodd" class="s0" d="m364.4 119.5h-10.8v-16h10.8v-41.7h33.7c19.6 0 31.5 11.7 31.5 28.5v0.3c0 19-14.8 28.9-33.3 28.9h-13.7v24.7h-18.2zm667.7-57.6h33.7c19.7 0 31.5 11.6 31.5 28.4v0.3c0 19-14.8 28.9-33.3 28.9h-13.7v24.8h-18.2v-24.8h-10.1v-16h10.1zm369 70.4l10.7-12.9c7.4 6.2 15.2 10 24.6 10 7.4 0 11.9-2.9 11.9-7.7v-0.3c0-4.6-2.9-6.9-16.6-10.4-16.6-4.3-27.3-8.9-27.3-25.2v-0.3c0-14.9 12-24.8 28.8-24.8 12 0 22.2 3.8 30.6 10.5l-9.4 13.6c-7.3-5-14.5-8.1-21.4-8.1-7 0-10.6 3.2-10.6 7.2v0.2c0 5.4 3.5 7.2 17.7 10.9 16.8 4.3 26.2 10.3 26.2 24.7v0.2c0 16.4-12.5 25.5-30.3 25.5-12.5 0-25-4.3-34.9-13.1zm-89.5-70.4h18.2v36l33.4-36h21.9l-33.6 34.9 35.1 47.5h-21.8l-25.5-35.1-9.5 9.9v25.2h-18.2zm-95.4 0h37.7c10.4 0 18.6 2.9 24 8.3 4.6 4.6 7 11.1 7 18.9v0.2c0 13.3-7.1 21.7-17.6 25.5l20.1 29.5h-21.2l-17.6-26.4h-14.3v26.4h-18.1zm36.5 40c8.8 0 13.9-4.7 13.9-11.7v-0.2c0-7.8-5.4-11.8-14.3-11.8h-18v23.7zm-111.5-40.6h16.7l35.3 83h-19l-7.5-18.5h-34.8l-7.6 18.5h-18.5zm19.1 48.4l-10.9-26.7-11 26.7zm-95.5-6.3c9 0 14.3-5.4 14.3-12.5v-0.2c0-8.1-5.6-12.5-14.7-12.5h-14v25.2zm-175-41.6h37.7c10.4 0 18.6 3 24 8.4 4.6 4.6 7 11.1 7 18.8v0.3c0 13.3-7.1 21.6-17.6 25.5l20.1 29.4h-21.2l-17.6-26.3h-14.3v26.3h-18.1zm36.5 40.1c8.8 0 13.9-4.8 13.9-11.7v-0.2c0-7.8-5.4-11.8-14.3-11.8h-18v23.7zm-125.7-40.1h62.2v16.2h-44.2v16.7h38.9v16.1h-38.9v17.3h44.8v16.1h-62.8zm-49 0h18.1v82.4h-18.1zm-113.4 0h19.6l21.6 34.9 21.7-34.9h19.5v82.4h-18v-53.8l-23.2 35.2h-0.4l-23-34.8v53.4h-17.8zm-89.2 0h62.2v16.1h-44.1v16.7h38.8v16.2h-38.8v17.3h44.7v16.1h-62.8zm-95.4 0h37.7c10.4 0 18.6 2.9 24 8.4 4.6 4.6 7 11 7 18.8v0.2c0 13.3-7.1 21.7-17.6 25.6l20.1 29.4h-21.2l-17.6-26.4h-14.3v26.4h-18.1zm36.5 40c8.8 0 13.9-4.7 13.9-11.6v-0.3c0-7.7-5.4-11.7-14.3-11.7h-18v23.6zm-92.9 1.5c9 0 14.3-5.4 14.3-12.4v-0.3c0-8.1-5.6-12.4-14.7-12.4h-14v25.1z"></path></g></svg> 